<mxfile host="app.diagrams.net" modified="2023-10-24T23:45:52.529Z" agent="Mozilla/5.0 (Windows NT 10.0; Win64; x64) AppleWebKit/537.36 (KHTML, like Gecko) Chrome/118.0.0.0 Safari/537.36" etag="VnAhTnW3FYeFK-tSa0PH" version="22.0.7" type="device">
  <diagram name="Page-1" id="bfe91b75-5d2c-26a0-9c1d-138518896778">
    <mxGraphModel dx="2625" dy="1335" grid="1" gridSize="10" guides="1" tooltips="1" connect="1" arrows="1" fold="1" page="1" pageScale="1" pageWidth="1100" pageHeight="850" background="none" math="0" shadow="0">
      <root>
        <mxCell id="0" />
        <mxCell id="1" parent="0" />
        <mxCell id="7c3789c024ecab99-82" value="SWITCH 4" style="rounded=1;whiteSpace=wrap;html=1;shadow=0;comic=0;strokeColor=#036897;strokeWidth=2;fillColor=none;fontFamily=Verdana;fontSize=28;fontColor=#6881B3;align=center;arcSize=11;verticalAlign=top;" parent="1" vertex="1">
          <mxGeometry x="78" y="1355" width="1065" height="420" as="geometry" />
        </mxCell>
        <mxCell id="7c3789c024ecab99-81" value="SWITCH 3" style="rounded=1;whiteSpace=wrap;html=1;shadow=0;comic=0;strokeColor=#036897;strokeWidth=2;fillColor=none;fontFamily=Verdana;fontSize=28;fontColor=#6881B3;align=center;arcSize=11;verticalAlign=top;" parent="1" vertex="1">
          <mxGeometry x="75" y="900" width="1065" height="420" as="geometry" />
        </mxCell>
        <mxCell id="7c3789c024ecab99-79" value="SWITCH 2" style="rounded=1;whiteSpace=wrap;html=1;shadow=0;comic=0;strokeColor=#036897;strokeWidth=3;fillColor=none;fontFamily=Verdana;fontSize=28;fontColor=#6881B3;align=center;arcSize=11;verticalAlign=top;" parent="1" vertex="1">
          <mxGeometry x="78" y="462" width="1065" height="420" as="geometry" />
        </mxCell>
        <mxCell id="7c3789c024ecab99-78" value="SWITCH 1" style="rounded=1;whiteSpace=wrap;html=1;shadow=0;comic=0;strokeColor=#036897;strokeWidth=2;fillColor=none;fontFamily=Verdana;fontSize=28;fontColor=#6881B3;align=center;arcSize=11;verticalAlign=top;" parent="1" vertex="1">
          <mxGeometry x="75" y="20" width="1065" height="420" as="geometry" />
        </mxCell>
        <mxCell id="7c3789c024ecab99-18" style="edgeStyle=orthogonalEdgeStyle;html=1;labelBackgroundColor=none;endArrow=none;endFill=0;strokeWidth=2;fontFamily=Verdana;fontSize=15;fontColor=#036897;entryX=0.5;entryY=0;entryDx=0;entryDy=0;entryPerimeter=0;dashed=1;" parent="1" edge="1">
          <mxGeometry relative="1" as="geometry">
            <mxPoint x="1370" y="1065" as="targetPoint" />
            <Array as="points">
              <mxPoint x="1370" y="192" />
            </Array>
            <mxPoint x="770.0000000000002" y="192" as="sourcePoint" />
          </mxGeometry>
        </mxCell>
        <mxCell id="7c3789c024ecab99-1" value="" style="fontColor=#0066CC;verticalAlign=top;verticalLabelPosition=bottom;labelPosition=center;align=center;html=1;fillColor=#CCCCCC;strokeColor=#6881B3;gradientColor=none;gradientDirection=north;strokeWidth=2;shape=mxgraph.networks.pc;rounded=0;shadow=0;comic=0;" parent="1" vertex="1">
          <mxGeometry x="368.0000000000003" y="310" width="100" height="70" as="geometry" />
        </mxCell>
        <mxCell id="7c3789c024ecab99-2" value="" style="fontColor=#0066CC;verticalAlign=top;verticalLabelPosition=bottom;labelPosition=center;align=center;html=1;fillColor=#CCCCCC;strokeColor=#6881B3;gradientColor=none;gradientDirection=north;strokeWidth=2;shape=mxgraph.networks.pc;rounded=0;shadow=0;comic=0;" parent="1" vertex="1">
          <mxGeometry x="500.0000000000003" y="310" width="100" height="70" as="geometry" />
        </mxCell>
        <mxCell id="7c3789c024ecab99-3" value="" style="fontColor=#0066CC;verticalAlign=top;verticalLabelPosition=bottom;labelPosition=center;align=center;html=1;fillColor=#CCCCCC;strokeColor=#6881B3;gradientColor=none;gradientDirection=north;strokeWidth=2;shape=mxgraph.networks.pc;rounded=0;shadow=0;comic=0;" parent="1" vertex="1">
          <mxGeometry x="628.0000000000002" y="310" width="100" height="70" as="geometry" />
        </mxCell>
        <mxCell id="7c3789c024ecab99-6" value="" style="fontColor=#0066CC;verticalAlign=top;verticalLabelPosition=bottom;labelPosition=center;align=center;html=1;fillColor=#CCCCCC;strokeColor=#6881B3;gradientColor=none;gradientDirection=north;strokeWidth=2;shape=mxgraph.networks.printer;rounded=0;shadow=0;comic=0;" parent="1" vertex="1">
          <mxGeometry x="770.0000000000002" y="295" width="100" height="100" as="geometry" />
        </mxCell>
        <mxCell id="7c3789c024ecab99-13" style="edgeStyle=none;html=1;labelBackgroundColor=none;endArrow=none;endFill=0;strokeWidth=2;fontFamily=Verdana;fontSize=15;fontColor=#036897;" parent="1" source="7c3789c024ecab99-1" edge="1">
          <mxGeometry relative="1" as="geometry">
            <mxPoint x="670.0000000000002" y="192.71523178807945" as="targetPoint" />
          </mxGeometry>
        </mxCell>
        <mxCell id="7c3789c024ecab99-14" style="edgeStyle=none;html=1;labelBackgroundColor=none;endArrow=none;endFill=0;strokeWidth=2;fontFamily=Verdana;fontSize=15;fontColor=#036897;exitX=0.5;exitY=0.07;exitDx=0;exitDy=0;exitPerimeter=0;" parent="1" source="7c3789c024ecab99-3" edge="1">
          <mxGeometry relative="1" as="geometry">
            <mxPoint x="708.2874015748037" y="205" as="targetPoint" />
          </mxGeometry>
        </mxCell>
        <mxCell id="7c3789c024ecab99-17" style="edgeStyle=none;html=1;labelBackgroundColor=none;endArrow=none;endFill=0;strokeWidth=2;fontFamily=Verdana;fontSize=15;fontColor=#036897;" parent="1" source="7c3789c024ecab99-6" edge="1">
          <mxGeometry relative="1" as="geometry">
            <mxPoint x="743.2876712328771" y="205" as="targetPoint" />
          </mxGeometry>
        </mxCell>
        <mxCell id="7c3789c024ecab99-20" value="" style="fontColor=#0066CC;verticalAlign=top;verticalLabelPosition=bottom;labelPosition=center;align=center;html=1;fillColor=#CCCCCC;strokeColor=#6881B3;gradientColor=none;gradientDirection=north;strokeWidth=2;shape=mxgraph.networks.pc;rounded=0;shadow=0;comic=0;" parent="1" vertex="1">
          <mxGeometry x="368.0000000000003" y="765" width="100" height="70" as="geometry" />
        </mxCell>
        <mxCell id="7c3789c024ecab99-21" value="" style="fontColor=#0066CC;verticalAlign=top;verticalLabelPosition=bottom;labelPosition=center;align=center;html=1;fillColor=#CCCCCC;strokeColor=#6881B3;gradientColor=none;gradientDirection=north;strokeWidth=2;shape=mxgraph.networks.pc;rounded=0;shadow=0;comic=0;" parent="1" vertex="1">
          <mxGeometry x="500.0000000000003" y="765" width="100" height="70" as="geometry" />
        </mxCell>
        <mxCell id="7c3789c024ecab99-23" value="" style="fontColor=#0066CC;verticalAlign=top;verticalLabelPosition=bottom;labelPosition=center;align=center;html=1;fillColor=#CCCCCC;strokeColor=#6881B3;gradientColor=none;gradientDirection=north;strokeWidth=2;shape=mxgraph.networks.pc;rounded=0;shadow=0;comic=0;" parent="1" vertex="1">
          <mxGeometry x="628.0000000000002" y="765" width="100" height="70" as="geometry" />
        </mxCell>
        <mxCell id="7c3789c024ecab99-29" value="" style="fontColor=#0066CC;verticalAlign=top;verticalLabelPosition=bottom;labelPosition=center;align=center;html=1;fillColor=#CCCCCC;strokeColor=#6881B3;gradientColor=none;gradientDirection=north;strokeWidth=2;shape=mxgraph.networks.printer;rounded=0;shadow=0;comic=0;" parent="1" vertex="1">
          <mxGeometry x="770.0000000000002" y="750" width="100" height="100" as="geometry" />
        </mxCell>
        <mxCell id="7c3789c024ecab99-50" style="edgeStyle=orthogonalEdgeStyle;html=1;labelBackgroundColor=none;endArrow=none;endFill=0;strokeWidth=2;fontFamily=Verdana;fontSize=15;fontColor=#036897;entryX=0.3;entryY=0.167;entryDx=0;entryDy=0;entryPerimeter=0;dashed=1;" parent="1" edge="1">
          <mxGeometry relative="1" as="geometry">
            <mxPoint x="1350" y="1070.0100000000002" as="targetPoint" />
            <mxPoint x="770.0000000000002" y="650.0322580645161" as="sourcePoint" />
            <Array as="points">
              <mxPoint x="1350" y="650" />
            </Array>
          </mxGeometry>
        </mxCell>
        <mxCell id="7c3789c024ecab99-19" style="edgeStyle=none;html=1;labelBackgroundColor=none;endArrow=none;endFill=0;strokeWidth=2;fontFamily=Verdana;fontSize=15;fontColor=#036897;" parent="1" source="7c3789c024ecab99-20" edge="1">
          <mxGeometry relative="1" as="geometry">
            <mxPoint x="670.0000000000002" y="647.7152317880793" as="targetPoint" />
          </mxGeometry>
        </mxCell>
        <mxCell id="7c3789c024ecab99-22" style="edgeStyle=none;html=1;labelBackgroundColor=none;endArrow=none;endFill=0;strokeWidth=2;fontFamily=Verdana;fontSize=15;fontColor=#036897;exitX=0.5;exitY=0.07;exitDx=0;exitDy=0;exitPerimeter=0;" parent="1" source="7c3789c024ecab99-23" edge="1">
          <mxGeometry relative="1" as="geometry">
            <mxPoint x="710.219178082192" y="660" as="targetPoint" />
          </mxGeometry>
        </mxCell>
        <mxCell id="7c3789c024ecab99-28" style="edgeStyle=none;html=1;labelBackgroundColor=none;endArrow=none;endFill=0;strokeWidth=2;fontFamily=Verdana;fontSize=15;fontColor=#036897;" parent="1" source="7c3789c024ecab99-29" edge="1">
          <mxGeometry relative="1" as="geometry">
            <mxPoint x="743.2876712328768" y="660" as="targetPoint" />
          </mxGeometry>
        </mxCell>
        <mxCell id="7c3789c024ecab99-34" value="" style="fontColor=#0066CC;verticalAlign=top;verticalLabelPosition=bottom;labelPosition=center;align=center;html=1;fillColor=#CCCCCC;strokeColor=#6881B3;gradientColor=none;gradientDirection=north;strokeWidth=2;shape=mxgraph.networks.pc;rounded=0;shadow=0;comic=0;" parent="1" vertex="1">
          <mxGeometry x="368.0000000000002" y="1199.4117647058824" width="100" height="70" as="geometry" />
        </mxCell>
        <mxCell id="7c3789c024ecab99-35" value="" style="fontColor=#0066CC;verticalAlign=top;verticalLabelPosition=bottom;labelPosition=center;align=center;html=1;fillColor=#CCCCCC;strokeColor=#6881B3;gradientColor=none;gradientDirection=north;strokeWidth=2;shape=mxgraph.networks.pc;rounded=0;shadow=0;comic=0;" parent="1" vertex="1">
          <mxGeometry x="500.0000000000002" y="1199.4117647058824" width="100" height="70" as="geometry" />
        </mxCell>
        <mxCell id="7c3789c024ecab99-37" value="" style="fontColor=#0066CC;verticalAlign=top;verticalLabelPosition=bottom;labelPosition=center;align=center;html=1;fillColor=#CCCCCC;strokeColor=#6881B3;gradientColor=none;gradientDirection=north;strokeWidth=2;shape=mxgraph.networks.pc;rounded=0;shadow=0;comic=0;" parent="1" vertex="1">
          <mxGeometry x="628.0000000000002" y="1199.4117647058824" width="100" height="70" as="geometry" />
        </mxCell>
        <mxCell id="7c3789c024ecab99-43" value="" style="fontColor=#0066CC;verticalAlign=top;verticalLabelPosition=bottom;labelPosition=center;align=center;html=1;fillColor=#CCCCCC;strokeColor=#6881B3;gradientColor=none;gradientDirection=north;strokeWidth=2;shape=mxgraph.networks.printer;rounded=0;shadow=0;comic=0;" parent="1" vertex="1">
          <mxGeometry x="770.0000000000002" y="1184.4117647058824" width="100" height="100" as="geometry" />
        </mxCell>
        <mxCell id="7c3789c024ecab99-51" style="edgeStyle=orthogonalEdgeStyle;html=1;labelBackgroundColor=none;endArrow=none;endFill=0;strokeWidth=2;fontFamily=Verdana;fontSize=15;fontColor=#036897;entryX=0;entryY=0.5;entryDx=0;entryDy=0;entryPerimeter=0;exitX=1;exitY=0.5;exitDx=0;exitDy=0;exitPerimeter=0;dashed=1;" parent="1" edge="1">
          <mxGeometry relative="1" as="geometry">
            <mxPoint x="1320" y="1080" as="targetPoint" />
            <Array as="points" />
            <mxPoint x="770" y="1080" as="sourcePoint" />
          </mxGeometry>
        </mxCell>
        <mxCell id="7c3789c024ecab99-33" style="edgeStyle=none;html=1;labelBackgroundColor=none;endArrow=none;endFill=0;strokeWidth=2;fontFamily=Verdana;fontSize=15;fontColor=#036897;" parent="1" source="7c3789c024ecab99-34" edge="1">
          <mxGeometry relative="1" as="geometry">
            <mxPoint x="670.0000000000002" y="1082.126996493962" as="targetPoint" />
          </mxGeometry>
        </mxCell>
        <mxCell id="7c3789c024ecab99-36" style="edgeStyle=none;html=1;labelBackgroundColor=none;endArrow=none;endFill=0;strokeWidth=2;fontFamily=Verdana;fontSize=15;fontColor=#036897;exitX=0.5;exitY=0.07;exitDx=0;exitDy=0;exitPerimeter=0;" parent="1" source="7c3789c024ecab99-37" edge="1">
          <mxGeometry relative="1" as="geometry">
            <mxPoint x="710.219178082192" y="1094.4117647058827" as="targetPoint" />
          </mxGeometry>
        </mxCell>
        <mxCell id="7c3789c024ecab99-42" style="edgeStyle=none;html=1;labelBackgroundColor=none;endArrow=none;endFill=0;strokeWidth=2;fontFamily=Verdana;fontSize=15;fontColor=#036897;" parent="1" source="7c3789c024ecab99-43" edge="1">
          <mxGeometry relative="1" as="geometry">
            <mxPoint x="743.2876712328768" y="1094.4117647058827" as="targetPoint" />
          </mxGeometry>
        </mxCell>
        <mxCell id="7c3789c024ecab99-61" value="" style="fontColor=#0066CC;verticalAlign=top;verticalLabelPosition=bottom;labelPosition=center;align=center;html=1;fillColor=#CCCCCC;strokeColor=#6881B3;gradientColor=none;gradientDirection=north;strokeWidth=2;shape=mxgraph.networks.pc;rounded=0;shadow=0;comic=0;" parent="1" vertex="1">
          <mxGeometry x="368.0000000000002" y="1670.4117647058824" width="100" height="70" as="geometry" />
        </mxCell>
        <mxCell id="7c3789c024ecab99-62" value="" style="fontColor=#0066CC;verticalAlign=top;verticalLabelPosition=bottom;labelPosition=center;align=center;html=1;fillColor=#CCCCCC;strokeColor=#6881B3;gradientColor=none;gradientDirection=north;strokeWidth=2;shape=mxgraph.networks.pc;rounded=0;shadow=0;comic=0;" parent="1" vertex="1">
          <mxGeometry x="500.0000000000002" y="1670.4117647058824" width="100" height="70" as="geometry" />
        </mxCell>
        <mxCell id="7c3789c024ecab99-63" value="" style="fontColor=#0066CC;verticalAlign=top;verticalLabelPosition=bottom;labelPosition=center;align=center;html=1;fillColor=#CCCCCC;strokeColor=#6881B3;gradientColor=none;gradientDirection=north;strokeWidth=2;shape=mxgraph.networks.pc;rounded=0;shadow=0;comic=0;" parent="1" vertex="1">
          <mxGeometry x="628.0000000000002" y="1670.4117647058824" width="100" height="70" as="geometry" />
        </mxCell>
        <mxCell id="7c3789c024ecab99-66" value="" style="fontColor=#0066CC;verticalAlign=top;verticalLabelPosition=bottom;labelPosition=center;align=center;html=1;fillColor=#CCCCCC;strokeColor=#6881B3;gradientColor=none;gradientDirection=north;strokeWidth=2;shape=mxgraph.networks.printer;rounded=0;shadow=0;comic=0;" parent="1" vertex="1">
          <mxGeometry x="770.0000000000002" y="1655.4117647058824" width="100" height="100" as="geometry" />
        </mxCell>
        <mxCell id="7c3789c024ecab99-75" style="edgeStyle=orthogonalEdgeStyle;html=1;labelBackgroundColor=none;endArrow=none;endFill=0;strokeWidth=2;fontFamily=Verdana;fontSize=28;fontColor=#6881B3;dashed=1;" parent="1" edge="1">
          <mxGeometry relative="1" as="geometry">
            <mxPoint x="1350" y="1095" as="targetPoint" />
            <Array as="points">
              <mxPoint x="1350" y="1552" />
            </Array>
            <mxPoint x="770.0000000000002" y="1552.0000000000002" as="sourcePoint" />
          </mxGeometry>
        </mxCell>
        <mxCell id="7c3789c024ecab99-68" style="edgeStyle=none;html=1;labelBackgroundColor=none;endArrow=none;endFill=0;strokeWidth=2;fontFamily=Verdana;fontSize=15;fontColor=#036897;" parent="1" source="7c3789c024ecab99-61" edge="1">
          <mxGeometry relative="1" as="geometry">
            <mxPoint x="670.0000000000002" y="1553.1269964939618" as="targetPoint" />
          </mxGeometry>
        </mxCell>
        <mxCell id="7c3789c024ecab99-69" style="edgeStyle=none;html=1;labelBackgroundColor=none;endArrow=none;endFill=0;strokeWidth=2;fontFamily=Verdana;fontSize=15;fontColor=#036897;exitX=0.5;exitY=0.07;exitDx=0;exitDy=0;exitPerimeter=0;" parent="1" source="7c3789c024ecab99-63" edge="1">
          <mxGeometry relative="1" as="geometry">
            <mxPoint x="710.219178082192" y="1565.4117647058822" as="targetPoint" />
          </mxGeometry>
        </mxCell>
        <mxCell id="7c3789c024ecab99-72" style="edgeStyle=none;html=1;labelBackgroundColor=none;endArrow=none;endFill=0;strokeWidth=2;fontFamily=Verdana;fontSize=15;fontColor=#036897;" parent="1" source="7c3789c024ecab99-66" edge="1">
          <mxGeometry relative="1" as="geometry">
            <mxPoint x="743.2876712328768" y="1565.4117647058822" as="targetPoint" />
          </mxGeometry>
        </mxCell>
        <mxCell id="auADu_g9KSD7ObR8FXBl-1" value="SWITCH 5" style="rounded=1;whiteSpace=wrap;html=1;shadow=0;comic=0;strokeColor=#036897;strokeWidth=2;fillColor=none;fontFamily=Verdana;fontSize=28;fontColor=#6881B3;align=center;arcSize=11;verticalAlign=top;" parent="1" vertex="1">
          <mxGeometry x="78" y="1819" width="1065" height="420" as="geometry" />
        </mxCell>
        <mxCell id="auADu_g9KSD7ObR8FXBl-2" value="" style="fontColor=#0066CC;verticalAlign=top;verticalLabelPosition=bottom;labelPosition=center;align=center;html=1;fillColor=#CCCCCC;strokeColor=#6881B3;gradientColor=none;gradientDirection=north;strokeWidth=2;shape=mxgraph.networks.pc;rounded=0;shadow=0;comic=0;" parent="1" vertex="1">
          <mxGeometry x="368.0000000000002" y="2134.4117647058824" width="100" height="70" as="geometry" />
        </mxCell>
        <mxCell id="auADu_g9KSD7ObR8FXBl-3" value="" style="fontColor=#0066CC;verticalAlign=top;verticalLabelPosition=bottom;labelPosition=center;align=center;html=1;fillColor=#CCCCCC;strokeColor=#6881B3;gradientColor=none;gradientDirection=north;strokeWidth=2;shape=mxgraph.networks.pc;rounded=0;shadow=0;comic=0;" parent="1" vertex="1">
          <mxGeometry x="500.0000000000002" y="2134.4117647058824" width="100" height="70" as="geometry" />
        </mxCell>
        <mxCell id="auADu_g9KSD7ObR8FXBl-4" value="" style="fontColor=#0066CC;verticalAlign=top;verticalLabelPosition=bottom;labelPosition=center;align=center;html=1;fillColor=#CCCCCC;strokeColor=#6881B3;gradientColor=none;gradientDirection=north;strokeWidth=2;shape=mxgraph.networks.pc;rounded=0;shadow=0;comic=0;" parent="1" vertex="1">
          <mxGeometry x="628.0000000000002" y="2134.4117647058824" width="100" height="70" as="geometry" />
        </mxCell>
        <mxCell id="auADu_g9KSD7ObR8FXBl-7" value="" style="fontColor=#0066CC;verticalAlign=top;verticalLabelPosition=bottom;labelPosition=center;align=center;html=1;fillColor=#CCCCCC;strokeColor=#6881B3;gradientColor=none;gradientDirection=north;strokeWidth=2;shape=mxgraph.networks.printer;rounded=0;shadow=0;comic=0;" parent="1" vertex="1">
          <mxGeometry x="770.0000000000002" y="2119.4117647058824" width="100" height="100" as="geometry" />
        </mxCell>
        <mxCell id="auADu_g9KSD7ObR8FXBl-9" style="edgeStyle=none;html=1;labelBackgroundColor=none;endArrow=none;endFill=0;strokeWidth=2;fontFamily=Verdana;fontSize=15;fontColor=#036897;" parent="1" source="auADu_g9KSD7ObR8FXBl-2" edge="1">
          <mxGeometry relative="1" as="geometry">
            <mxPoint x="670.0000000000002" y="2017.126996493962" as="targetPoint" />
          </mxGeometry>
        </mxCell>
        <mxCell id="auADu_g9KSD7ObR8FXBl-10" style="edgeStyle=none;html=1;labelBackgroundColor=none;endArrow=none;endFill=0;strokeWidth=2;fontFamily=Verdana;fontSize=15;fontColor=#036897;exitX=0.5;exitY=0.07;exitDx=0;exitDy=0;exitPerimeter=0;" parent="1" source="auADu_g9KSD7ObR8FXBl-4" edge="1">
          <mxGeometry relative="1" as="geometry">
            <mxPoint x="710.219178082192" y="2029.4117647058824" as="targetPoint" />
          </mxGeometry>
        </mxCell>
        <mxCell id="auADu_g9KSD7ObR8FXBl-13" style="edgeStyle=none;html=1;labelBackgroundColor=none;endArrow=none;endFill=0;strokeWidth=2;fontFamily=Verdana;fontSize=15;fontColor=#036897;" parent="1" source="auADu_g9KSD7ObR8FXBl-7" edge="1">
          <mxGeometry relative="1" as="geometry">
            <mxPoint x="743.2876712328768" y="2029.4117647058824" as="targetPoint" />
          </mxGeometry>
        </mxCell>
        <mxCell id="auADu_g9KSD7ObR8FXBl-18" value="" style="edgeStyle=orthogonalEdgeStyle;html=1;labelBackgroundColor=none;endArrow=none;endFill=0;strokeWidth=2;fontFamily=Verdana;fontSize=28;fontColor=#6881B3;exitX=1;exitY=0.7;exitDx=0;exitDy=0;exitPerimeter=0;entryX=0.624;entryY=0.986;entryDx=0;entryDy=0;entryPerimeter=0;dashed=1;" parent="1" edge="1">
          <mxGeometry relative="1" as="geometry">
            <mxPoint x="1372.3999999999996" y="1093.9900000000002" as="targetPoint" />
            <Array as="points">
              <mxPoint x="1372" y="2004" />
            </Array>
            <mxPoint x="770.0000000000002" y="2003.911764705883" as="sourcePoint" />
          </mxGeometry>
        </mxCell>
        <mxCell id="auADu_g9KSD7ObR8FXBl-20" value="" style="fontColor=#0066CC;verticalAlign=top;verticalLabelPosition=bottom;labelPosition=center;align=center;html=1;outlineConnect=0;fillColor=#CCCCCC;strokeColor=#6881B3;gradientColor=none;gradientDirection=north;strokeWidth=2;shape=mxgraph.networks.router;" parent="1" vertex="1">
          <mxGeometry x="1560" y="882" width="100" height="30" as="geometry" />
        </mxCell>
        <mxCell id="auADu_g9KSD7ObR8FXBl-21" value="" style="fontColor=#0066CC;verticalAlign=top;verticalLabelPosition=bottom;labelPosition=center;align=center;html=1;outlineConnect=0;fillColor=#CCCCCC;strokeColor=#6881B3;gradientColor=none;gradientDirection=north;strokeWidth=2;shape=mxgraph.networks.server;" parent="1" vertex="1">
          <mxGeometry x="1565" y="1225" width="90" height="100" as="geometry" />
        </mxCell>
        <mxCell id="auADu_g9KSD7ObR8FXBl-22" value="" style="endArrow=none;html=1;rounded=0;entryX=0.5;entryY=0;entryDx=0;entryDy=0;entryPerimeter=0;exitX=1;exitY=0.5;exitDx=0;exitDy=0;exitPerimeter=0;strokeColor=#000000;strokeWidth=2;" parent="1" target="auADu_g9KSD7ObR8FXBl-21" edge="1">
          <mxGeometry width="50" height="50" relative="1" as="geometry">
            <mxPoint x="1420" y="1080" as="sourcePoint" />
            <mxPoint x="1590" y="1160" as="targetPoint" />
          </mxGeometry>
        </mxCell>
        <mxCell id="auADu_g9KSD7ObR8FXBl-26" value="" style="endArrow=none;html=1;rounded=0;exitX=0.5;exitY=0.07;exitDx=0;exitDy=0;exitPerimeter=0;entryX=0.02;entryY=0.94;entryDx=0;entryDy=0;entryPerimeter=0;strokeWidth=2;" parent="1" source="7c3789c024ecab99-2" edge="1">
          <mxGeometry width="50" height="50" relative="1" as="geometry">
            <mxPoint x="600" y="310" as="sourcePoint" />
            <mxPoint x="672.0000000000005" y="199.89999999999998" as="targetPoint" />
          </mxGeometry>
        </mxCell>
        <mxCell id="auADu_g9KSD7ObR8FXBl-32" value="" style="endArrow=none;html=1;rounded=0;strokeWidth=2;entryX=0.1;entryY=1;entryDx=0;entryDy=0;entryPerimeter=0;exitX=0.5;exitY=0.07;exitDx=0;exitDy=0;exitPerimeter=0;" parent="1" source="auADu_g9KSD7ObR8FXBl-3" edge="1">
          <mxGeometry width="50" height="50" relative="1" as="geometry">
            <mxPoint x="730" y="2090" as="sourcePoint" />
            <mxPoint x="680" y="2030" as="targetPoint" />
          </mxGeometry>
        </mxCell>
        <mxCell id="auADu_g9KSD7ObR8FXBl-33" value="" style="endArrow=none;html=1;rounded=0;strokeWidth=2;entryX=0.1;entryY=1;entryDx=0;entryDy=0;entryPerimeter=0;exitX=0.5;exitY=0.07;exitDx=0;exitDy=0;exitPerimeter=0;" parent="1" source="7c3789c024ecab99-62" edge="1">
          <mxGeometry width="50" height="50" relative="1" as="geometry">
            <mxPoint x="730" y="1660" as="sourcePoint" />
            <mxPoint x="680" y="1570" as="targetPoint" />
          </mxGeometry>
        </mxCell>
        <mxCell id="auADu_g9KSD7ObR8FXBl-34" value="" style="endArrow=none;html=1;rounded=0;entryX=0.1;entryY=1;entryDx=0;entryDy=0;entryPerimeter=0;exitX=0.5;exitY=0.07;exitDx=0;exitDy=0;exitPerimeter=0;strokeWidth=2;" parent="1" source="7c3789c024ecab99-21" edge="1">
          <mxGeometry width="50" height="50" relative="1" as="geometry">
            <mxPoint x="690" y="760" as="sourcePoint" />
            <mxPoint x="680" y="660" as="targetPoint" />
          </mxGeometry>
        </mxCell>
        <mxCell id="auADu_g9KSD7ObR8FXBl-35" value="" style="endArrow=none;html=1;rounded=0;entryX=0.1;entryY=1;entryDx=0;entryDy=0;entryPerimeter=0;exitX=0.5;exitY=0.07;exitDx=0;exitDy=0;exitPerimeter=0;strokeWidth=2;" parent="1" source="7c3789c024ecab99-35" edge="1">
          <mxGeometry width="50" height="50" relative="1" as="geometry">
            <mxPoint x="690" y="1260" as="sourcePoint" />
            <mxPoint x="680" y="1095" as="targetPoint" />
          </mxGeometry>
        </mxCell>
        <mxCell id="auADu_g9KSD7ObR8FXBl-36" value="&lt;font color=&quot;#6880b1&quot; face=&quot;Verdana&quot; style=&quot;font-size: 27px;&quot;&gt;ROUTER&lt;/font&gt;" style="text;html=1;strokeColor=none;fillColor=none;align=center;verticalAlign=middle;whiteSpace=wrap;rounded=0;fontSize=27;" parent="1" vertex="1">
          <mxGeometry x="1550" y="831" width="120" height="50" as="geometry" />
        </mxCell>
        <mxCell id="auADu_g9KSD7ObR8FXBl-37" value="" style="endArrow=none;html=1;rounded=0;entryX=0.1;entryY=1;entryDx=0;entryDy=0;entryPerimeter=0;exitX=0.95;exitY=0.05;exitDx=0;exitDy=0;exitPerimeter=0;strokeWidth=2;" parent="1" target="auADu_g9KSD7ObR8FXBl-20" edge="1">
          <mxGeometry width="50" height="50" relative="1" as="geometry">
            <mxPoint x="1415" y="1066.5000000000005" as="sourcePoint" />
            <mxPoint x="1390" y="1210" as="targetPoint" />
          </mxGeometry>
        </mxCell>
        <mxCell id="auADu_g9KSD7ObR8FXBl-38" value="&lt;font face=&quot;Verdana&quot; color=&quot;#6880b1&quot; style=&quot;font-size: 27px;&quot;&gt;&lt;span style=&quot;font-size: 27px;&quot;&gt;DHCP SERVER&lt;/span&gt;&lt;/font&gt;" style="text;html=1;strokeColor=none;fillColor=none;align=center;verticalAlign=middle;whiteSpace=wrap;rounded=0;fontSize=27;" parent="1" vertex="1">
          <mxGeometry x="1550" y="1339" width="120" height="50" as="geometry" />
        </mxCell>
        <mxCell id="auADu_g9KSD7ObR8FXBl-39" value="&lt;font color=&quot;#6880b1&quot; face=&quot;Verdana&quot; style=&quot;font-size: 27px;&quot;&gt;SWITCH 0&lt;/font&gt;" style="text;html=1;strokeColor=none;fillColor=none;align=center;verticalAlign=middle;whiteSpace=wrap;rounded=0;fontSize=27;" parent="1" vertex="1">
          <mxGeometry x="1426" y="1050" width="154" height="50" as="geometry" />
        </mxCell>
        <mxCell id="auADu_g9KSD7ObR8FXBl-40" value="" style="fontColor=#0066CC;verticalAlign=top;verticalLabelPosition=bottom;labelPosition=center;align=center;html=1;outlineConnect=0;fillColor=#CCCCCC;strokeColor=#6881B3;gradientColor=none;gradientDirection=north;strokeWidth=2;shape=mxgraph.networks.laptop;" parent="1" vertex="1">
          <mxGeometry x="140" y="510" width="100" height="55" as="geometry" />
        </mxCell>
        <mxCell id="auADu_g9KSD7ObR8FXBl-41" value="" style="fontColor=#0066CC;verticalAlign=top;verticalLabelPosition=bottom;labelPosition=center;align=center;html=1;outlineConnect=0;fillColor=#CCCCCC;strokeColor=#6881B3;gradientColor=none;gradientDirection=north;strokeWidth=2;shape=mxgraph.networks.laptop;" parent="1" vertex="1">
          <mxGeometry x="140" y="65" width="100" height="55" as="geometry" />
        </mxCell>
        <mxCell id="auADu_g9KSD7ObR8FXBl-43" value="" style="fontColor=#0066CC;verticalAlign=top;verticalLabelPosition=bottom;labelPosition=center;align=center;html=1;outlineConnect=0;fillColor=#CCCCCC;strokeColor=#6881B3;gradientColor=none;gradientDirection=north;strokeWidth=2;shape=mxgraph.networks.laptop;" parent="1" vertex="1">
          <mxGeometry x="140" y="950" width="100" height="55" as="geometry" />
        </mxCell>
        <mxCell id="auADu_g9KSD7ObR8FXBl-44" value="" style="fontColor=#0066CC;verticalAlign=top;verticalLabelPosition=bottom;labelPosition=center;align=center;html=1;outlineConnect=0;fillColor=#CCCCCC;strokeColor=#6881B3;gradientColor=none;gradientDirection=north;strokeWidth=2;shape=mxgraph.networks.laptop;" parent="1" vertex="1">
          <mxGeometry x="140" y="1389" width="100" height="55" as="geometry" />
        </mxCell>
        <mxCell id="auADu_g9KSD7ObR8FXBl-45" value="" style="fontColor=#0066CC;verticalAlign=top;verticalLabelPosition=bottom;labelPosition=center;align=center;html=1;outlineConnect=0;fillColor=#CCCCCC;strokeColor=#6881B3;gradientColor=none;gradientDirection=north;strokeWidth=2;shape=mxgraph.networks.laptop;" parent="1" vertex="1">
          <mxGeometry x="140" y="1870" width="100" height="55" as="geometry" />
        </mxCell>
        <mxCell id="auADu_g9KSD7ObR8FXBl-46" value="" style="fontColor=#0066CC;verticalAlign=top;verticalLabelPosition=bottom;labelPosition=center;align=center;html=1;outlineConnect=0;fillColor=#CCCCCC;strokeColor=#6881B3;gradientColor=none;gradientDirection=north;strokeWidth=2;shape=mxgraph.networks.tablet;" parent="1" vertex="1">
          <mxGeometry x="140" y="1040" width="100" height="70" as="geometry" />
        </mxCell>
        <mxCell id="auADu_g9KSD7ObR8FXBl-47" value="" style="fontColor=#0066CC;verticalAlign=top;verticalLabelPosition=bottom;labelPosition=center;align=center;html=1;outlineConnect=0;fillColor=#CCCCCC;strokeColor=#6881B3;gradientColor=none;gradientDirection=north;strokeWidth=2;shape=mxgraph.networks.tablet;" parent="1" vertex="1">
          <mxGeometry x="140" y="1480" width="100" height="70" as="geometry" />
        </mxCell>
        <mxCell id="auADu_g9KSD7ObR8FXBl-48" value="" style="fontColor=#0066CC;verticalAlign=top;verticalLabelPosition=bottom;labelPosition=center;align=center;html=1;outlineConnect=0;fillColor=#CCCCCC;strokeColor=#6881B3;gradientColor=none;gradientDirection=north;strokeWidth=2;shape=mxgraph.networks.tablet;" parent="1" vertex="1">
          <mxGeometry x="140" y="1960" width="100" height="70" as="geometry" />
        </mxCell>
        <mxCell id="auADu_g9KSD7ObR8FXBl-49" value="" style="fontColor=#0066CC;verticalAlign=top;verticalLabelPosition=bottom;labelPosition=center;align=center;html=1;outlineConnect=0;fillColor=#CCCCCC;strokeColor=#6881B3;gradientColor=none;gradientDirection=north;strokeWidth=2;shape=mxgraph.networks.tablet;" parent="1" vertex="1">
          <mxGeometry x="140" y="600" width="100" height="70" as="geometry" />
        </mxCell>
        <mxCell id="auADu_g9KSD7ObR8FXBl-50" value="" style="fontColor=#0066CC;verticalAlign=top;verticalLabelPosition=bottom;labelPosition=center;align=center;html=1;outlineConnect=0;fillColor=#CCCCCC;strokeColor=#6881B3;gradientColor=none;gradientDirection=north;strokeWidth=2;shape=mxgraph.networks.tablet;" parent="1" vertex="1">
          <mxGeometry x="140" y="160" width="100" height="70" as="geometry" />
        </mxCell>
        <mxCell id="auADu_g9KSD7ObR8FXBl-51" value="" style="fontColor=#0066CC;verticalAlign=top;verticalLabelPosition=bottom;labelPosition=center;align=center;html=1;outlineConnect=0;fillColor=#CCCCCC;strokeColor=#6881B3;gradientColor=none;gradientDirection=north;strokeWidth=2;shape=mxgraph.networks.switch;" parent="1" vertex="1">
          <mxGeometry x="670" y="180" width="100" height="30" as="geometry" />
        </mxCell>
        <mxCell id="auADu_g9KSD7ObR8FXBl-52" value="" style="fontColor=#0066CC;verticalAlign=top;verticalLabelPosition=bottom;labelPosition=center;align=center;html=1;outlineConnect=0;fillColor=#CCCCCC;strokeColor=#6881B3;gradientColor=none;gradientDirection=north;strokeWidth=2;shape=mxgraph.networks.switch;" parent="1" vertex="1">
          <mxGeometry x="670" y="2000" width="100" height="30" as="geometry" />
        </mxCell>
        <mxCell id="auADu_g9KSD7ObR8FXBl-53" value="" style="fontColor=#0066CC;verticalAlign=top;verticalLabelPosition=bottom;labelPosition=center;align=center;html=1;outlineConnect=0;fillColor=#CCCCCC;strokeColor=#6881B3;gradientColor=none;gradientDirection=north;strokeWidth=2;shape=mxgraph.networks.switch;" parent="1" vertex="1">
          <mxGeometry x="670" y="630" width="100" height="30" as="geometry" />
        </mxCell>
        <mxCell id="auADu_g9KSD7ObR8FXBl-54" value="" style="fontColor=#0066CC;verticalAlign=top;verticalLabelPosition=bottom;labelPosition=center;align=center;html=1;outlineConnect=0;fillColor=#CCCCCC;strokeColor=#6881B3;gradientColor=none;gradientDirection=north;strokeWidth=2;shape=mxgraph.networks.switch;" parent="1" vertex="1">
          <mxGeometry x="670" y="1065" width="100" height="30" as="geometry" />
        </mxCell>
        <mxCell id="auADu_g9KSD7ObR8FXBl-55" value="" style="fontColor=#0066CC;verticalAlign=top;verticalLabelPosition=bottom;labelPosition=center;align=center;html=1;outlineConnect=0;fillColor=#CCCCCC;strokeColor=#6881B3;gradientColor=none;gradientDirection=north;strokeWidth=2;shape=mxgraph.networks.switch;" parent="1" vertex="1">
          <mxGeometry x="670" y="1540" width="100" height="30" as="geometry" />
        </mxCell>
        <mxCell id="auADu_g9KSD7ObR8FXBl-56" value="" style="fontColor=#0066CC;verticalAlign=top;verticalLabelPosition=bottom;labelPosition=center;align=center;html=1;outlineConnect=0;fillColor=#CCCCCC;strokeColor=#6881B3;gradientColor=none;gradientDirection=north;strokeWidth=2;shape=mxgraph.networks.switch;" parent="1" vertex="1">
          <mxGeometry x="1320" y="1065" width="100" height="30" as="geometry" />
        </mxCell>
        <mxCell id="auADu_g9KSD7ObR8FXBl-59" value="" style="fontColor=#0066CC;verticalAlign=top;verticalLabelPosition=bottom;labelPosition=center;align=center;html=1;outlineConnect=0;fillColor=#CCCCCC;strokeColor=#6881B3;gradientColor=none;gradientDirection=north;strokeWidth=2;shape=mxgraph.networks.wireless_hub;" parent="1" vertex="1">
          <mxGeometry x="350" y="955" width="100" height="85" as="geometry" />
        </mxCell>
        <mxCell id="auADu_g9KSD7ObR8FXBl-60" value="" style="fontColor=#0066CC;verticalAlign=top;verticalLabelPosition=bottom;labelPosition=center;align=center;html=1;outlineConnect=0;fillColor=#CCCCCC;strokeColor=#6881B3;gradientColor=none;gradientDirection=north;strokeWidth=2;shape=mxgraph.networks.wireless_hub;" parent="1" vertex="1">
          <mxGeometry x="350" y="1880" width="100" height="85" as="geometry" />
        </mxCell>
        <mxCell id="auADu_g9KSD7ObR8FXBl-61" value="" style="fontColor=#0066CC;verticalAlign=top;verticalLabelPosition=bottom;labelPosition=center;align=center;html=1;outlineConnect=0;fillColor=#CCCCCC;strokeColor=#6881B3;gradientColor=none;gradientDirection=north;strokeWidth=2;shape=mxgraph.networks.wireless_hub;" parent="1" vertex="1">
          <mxGeometry x="350" y="1395" width="100" height="85" as="geometry" />
        </mxCell>
        <mxCell id="auADu_g9KSD7ObR8FXBl-62" value="" style="fontColor=#0066CC;verticalAlign=top;verticalLabelPosition=bottom;labelPosition=center;align=center;html=1;outlineConnect=0;fillColor=#CCCCCC;strokeColor=#6881B3;gradientColor=none;gradientDirection=north;strokeWidth=2;shape=mxgraph.networks.wireless_hub;" parent="1" vertex="1">
          <mxGeometry x="350" y="515" width="100" height="85" as="geometry" />
        </mxCell>
        <mxCell id="auADu_g9KSD7ObR8FXBl-63" value="" style="fontColor=#0066CC;verticalAlign=top;verticalLabelPosition=bottom;labelPosition=center;align=center;html=1;outlineConnect=0;fillColor=#CCCCCC;strokeColor=#6881B3;gradientColor=none;gradientDirection=north;strokeWidth=2;shape=mxgraph.networks.wireless_hub;" parent="1" vertex="1">
          <mxGeometry x="350" y="75" width="100" height="85" as="geometry" />
        </mxCell>
        <mxCell id="auADu_g9KSD7ObR8FXBl-64" value="" style="endArrow=none;html=1;rounded=0;entryX=0.05;entryY=0.05;entryDx=0;entryDy=0;entryPerimeter=0;exitX=1;exitY=0.7;exitDx=0;exitDy=0;exitPerimeter=0;strokeWidth=2;" parent="1" source="auADu_g9KSD7ObR8FXBl-63" target="auADu_g9KSD7ObR8FXBl-51" edge="1">
          <mxGeometry width="50" height="50" relative="1" as="geometry">
            <mxPoint x="930" y="470" as="sourcePoint" />
            <mxPoint x="980" y="420" as="targetPoint" />
          </mxGeometry>
        </mxCell>
        <mxCell id="auADu_g9KSD7ObR8FXBl-65" value="" style="endArrow=none;html=1;rounded=0;entryX=0.05;entryY=0.05;entryDx=0;entryDy=0;entryPerimeter=0;exitX=1;exitY=0.7;exitDx=0;exitDy=0;exitPerimeter=0;strokeWidth=2;" parent="1" source="auADu_g9KSD7ObR8FXBl-62" target="auADu_g9KSD7ObR8FXBl-53" edge="1">
          <mxGeometry width="50" height="50" relative="1" as="geometry">
            <mxPoint x="460" y="145" as="sourcePoint" />
            <mxPoint x="685" y="192" as="targetPoint" />
          </mxGeometry>
        </mxCell>
        <mxCell id="auADu_g9KSD7ObR8FXBl-66" value="" style="endArrow=none;html=1;rounded=0;entryX=0.05;entryY=0.05;entryDx=0;entryDy=0;entryPerimeter=0;exitX=1;exitY=0.7;exitDx=0;exitDy=0;exitPerimeter=0;strokeWidth=2;" parent="1" source="auADu_g9KSD7ObR8FXBl-59" target="auADu_g9KSD7ObR8FXBl-54" edge="1">
          <mxGeometry width="50" height="50" relative="1" as="geometry">
            <mxPoint x="470" y="155" as="sourcePoint" />
            <mxPoint x="695" y="202" as="targetPoint" />
          </mxGeometry>
        </mxCell>
        <mxCell id="auADu_g9KSD7ObR8FXBl-67" value="" style="endArrow=none;html=1;rounded=0;entryX=0.05;entryY=0.05;entryDx=0;entryDy=0;entryPerimeter=0;exitX=1;exitY=0.7;exitDx=0;exitDy=0;exitPerimeter=0;strokeWidth=2;" parent="1" source="auADu_g9KSD7ObR8FXBl-61" target="auADu_g9KSD7ObR8FXBl-55" edge="1">
          <mxGeometry width="50" height="50" relative="1" as="geometry">
            <mxPoint x="480" y="165" as="sourcePoint" />
            <mxPoint x="705" y="212" as="targetPoint" />
          </mxGeometry>
        </mxCell>
        <mxCell id="auADu_g9KSD7ObR8FXBl-68" value="" style="endArrow=none;html=1;rounded=0;strokeWidth=2;entryX=0.05;entryY=0.05;entryDx=0;entryDy=0;entryPerimeter=0;exitX=1;exitY=0.7;exitDx=0;exitDy=0;exitPerimeter=0;" parent="1" source="auADu_g9KSD7ObR8FXBl-60" target="auADu_g9KSD7ObR8FXBl-52" edge="1">
          <mxGeometry width="50" height="50" relative="1" as="geometry">
            <mxPoint x="550" y="1990" as="sourcePoint" />
            <mxPoint x="600" y="1940" as="targetPoint" />
          </mxGeometry>
        </mxCell>
        <mxCell id="auADu_g9KSD7ObR8FXBl-69" value="" style="endArrow=none;dashed=1;html=1;dashPattern=1 3;strokeWidth=3;rounded=0;entryX=0.02;entryY=0.94;entryDx=0;entryDy=0;entryPerimeter=0;exitX=1;exitY=0.5;exitDx=0;exitDy=0;exitPerimeter=0;" parent="1" source="auADu_g9KSD7ObR8FXBl-48" target="auADu_g9KSD7ObR8FXBl-60" edge="1">
          <mxGeometry width="50" height="50" relative="1" as="geometry">
            <mxPoint x="930" y="1990" as="sourcePoint" />
            <mxPoint x="980" y="1940" as="targetPoint" />
          </mxGeometry>
        </mxCell>
        <mxCell id="auADu_g9KSD7ObR8FXBl-70" value="" style="endArrow=none;dashed=1;html=1;dashPattern=1 3;strokeWidth=3;rounded=0;entryX=0;entryY=0.7;entryDx=0;entryDy=0;entryPerimeter=0;exitX=1;exitY=1;exitDx=0;exitDy=0;exitPerimeter=0;" parent="1" source="auADu_g9KSD7ObR8FXBl-45" target="auADu_g9KSD7ObR8FXBl-60" edge="1">
          <mxGeometry width="50" height="50" relative="1" as="geometry">
            <mxPoint x="930" y="1990" as="sourcePoint" />
            <mxPoint x="980" y="1940" as="targetPoint" />
          </mxGeometry>
        </mxCell>
        <mxCell id="auADu_g9KSD7ObR8FXBl-71" value="" style="endArrow=none;dashed=1;html=1;dashPattern=1 3;strokeWidth=3;rounded=0;entryX=0.02;entryY=0.94;entryDx=0;entryDy=0;entryPerimeter=0;exitX=1;exitY=0.5;exitDx=0;exitDy=0;exitPerimeter=0;" parent="1" edge="1">
          <mxGeometry width="50" height="50" relative="1" as="geometry">
            <mxPoint x="240" y="1505" as="sourcePoint" />
            <mxPoint x="352" y="1470" as="targetPoint" />
          </mxGeometry>
        </mxCell>
        <mxCell id="auADu_g9KSD7ObR8FXBl-72" value="" style="endArrow=none;dashed=1;html=1;dashPattern=1 3;strokeWidth=3;rounded=0;entryX=0;entryY=0.7;entryDx=0;entryDy=0;entryPerimeter=0;exitX=1;exitY=1;exitDx=0;exitDy=0;exitPerimeter=0;" parent="1" edge="1">
          <mxGeometry width="50" height="50" relative="1" as="geometry">
            <mxPoint x="240" y="1444" as="sourcePoint" />
            <mxPoint x="350" y="1459" as="targetPoint" />
          </mxGeometry>
        </mxCell>
        <mxCell id="auADu_g9KSD7ObR8FXBl-73" value="" style="endArrow=none;dashed=1;html=1;dashPattern=1 3;strokeWidth=3;rounded=0;exitX=1;exitY=1;exitDx=0;exitDy=0;exitPerimeter=0;entryX=0;entryY=0.7;entryDx=0;entryDy=0;entryPerimeter=0;" parent="1" source="auADu_g9KSD7ObR8FXBl-43" target="auADu_g9KSD7ObR8FXBl-59" edge="1">
          <mxGeometry width="50" height="50" relative="1" as="geometry">
            <mxPoint x="430" y="1050" as="sourcePoint" />
            <mxPoint x="480" y="1000" as="targetPoint" />
          </mxGeometry>
        </mxCell>
        <mxCell id="auADu_g9KSD7ObR8FXBl-74" value="" style="endArrow=none;dashed=1;html=1;dashPattern=1 3;strokeWidth=3;rounded=0;entryX=0.02;entryY=0.94;entryDx=0;entryDy=0;entryPerimeter=0;exitX=1;exitY=0.5;exitDx=0;exitDy=0;exitPerimeter=0;" parent="1" source="auADu_g9KSD7ObR8FXBl-46" target="auADu_g9KSD7ObR8FXBl-59" edge="1">
          <mxGeometry width="50" height="50" relative="1" as="geometry">
            <mxPoint x="430" y="1050" as="sourcePoint" />
            <mxPoint x="480" y="1000" as="targetPoint" />
          </mxGeometry>
        </mxCell>
        <mxCell id="auADu_g9KSD7ObR8FXBl-75" value="" style="endArrow=none;dashed=1;html=1;dashPattern=1 3;strokeWidth=3;rounded=0;entryX=0;entryY=0.7;entryDx=0;entryDy=0;entryPerimeter=0;exitX=1;exitY=1;exitDx=0;exitDy=0;exitPerimeter=0;" parent="1" source="auADu_g9KSD7ObR8FXBl-40" target="auADu_g9KSD7ObR8FXBl-62" edge="1">
          <mxGeometry width="50" height="50" relative="1" as="geometry">
            <mxPoint x="430" y="650" as="sourcePoint" />
            <mxPoint x="480" y="600" as="targetPoint" />
          </mxGeometry>
        </mxCell>
        <mxCell id="auADu_g9KSD7ObR8FXBl-76" value="" style="endArrow=none;dashed=1;html=1;dashPattern=1 3;strokeWidth=3;rounded=0;exitX=1;exitY=0.5;exitDx=0;exitDy=0;exitPerimeter=0;entryX=0.02;entryY=0.94;entryDx=0;entryDy=0;entryPerimeter=0;" parent="1" source="auADu_g9KSD7ObR8FXBl-49" target="auADu_g9KSD7ObR8FXBl-62" edge="1">
          <mxGeometry width="50" height="50" relative="1" as="geometry">
            <mxPoint x="430" y="650" as="sourcePoint" />
            <mxPoint x="480" y="600" as="targetPoint" />
          </mxGeometry>
        </mxCell>
        <mxCell id="auADu_g9KSD7ObR8FXBl-77" value="" style="endArrow=none;dashed=1;html=1;dashPattern=1 3;strokeWidth=3;rounded=0;entryX=0.02;entryY=0.94;entryDx=0;entryDy=0;entryPerimeter=0;exitX=1;exitY=0.5;exitDx=0;exitDy=0;exitPerimeter=0;" parent="1" source="auADu_g9KSD7ObR8FXBl-50" target="auADu_g9KSD7ObR8FXBl-63" edge="1">
          <mxGeometry width="50" height="50" relative="1" as="geometry">
            <mxPoint x="430" y="170" as="sourcePoint" />
            <mxPoint x="480" y="120" as="targetPoint" />
          </mxGeometry>
        </mxCell>
        <mxCell id="auADu_g9KSD7ObR8FXBl-78" value="" style="endArrow=none;dashed=1;html=1;dashPattern=1 3;strokeWidth=3;rounded=0;entryX=1;entryY=1;entryDx=0;entryDy=0;entryPerimeter=0;exitX=0;exitY=0.7;exitDx=0;exitDy=0;exitPerimeter=0;" parent="1" source="auADu_g9KSD7ObR8FXBl-63" target="auADu_g9KSD7ObR8FXBl-41" edge="1">
          <mxGeometry width="50" height="50" relative="1" as="geometry">
            <mxPoint x="430" y="170" as="sourcePoint" />
            <mxPoint x="480" y="120" as="targetPoint" />
          </mxGeometry>
        </mxCell>
        <mxCell id="auADu_g9KSD7ObR8FXBl-80" value="&lt;font color=&quot;#2c84af&quot; face=&quot;Verdana&quot; style=&quot;font-size: 62px;&quot;&gt;Architecture Physique&amp;nbsp;&lt;br&gt;SION&lt;br&gt;Topology&lt;/font&gt;" style="text;html=1;strokeColor=none;fillColor=none;align=center;verticalAlign=middle;whiteSpace=wrap;rounded=0;" parent="1" vertex="1">
          <mxGeometry x="1655" y="325" width="350" height="200" as="geometry" />
        </mxCell>
      </root>
    </mxGraphModel>
  </diagram>
</mxfile>
